# xmcd
#
# Track frame offsets: 
#        150
#        20001
#        43382
#        68262
#        91478
#        113745
#        134582
#        159081
#        181632
#        207859
#        233954
#        257694
#        277771
#
# Disc length: 4025 seconds
#
# Revision: 2
# Processed by: cddbd v1.5.2PL0 Copyright (c) Steve Scherf et al.
# Submitted via: ExactAudioCopy v0.99pb5
#
DISCID=a70fb70d
DTITLE=Philippe Saisse Acoustique Trio - My Favorite Songs
DYEAR=2003
DGENRE=Jazz
TTITLE0=Poem for #15
TTITLE1=Michelle
TTITLE2=Once
TTITLE3=Summer Breeze
TTITLE4=I'm Not In Love
TTITLE5=Alone Again (Naturally)
TTITLE6=Sorry Seems To Be The Hardest Word
TTITLE7=Song For Jun
TTITLE8=Laura
TTITLE9=La Valse De Lilas (Once Upon A Summertime)
TTITLE10=About Time
TTITLE11=Song For Saisse
TTITLE12=Como La Lluvia (Just Like Rain)
EXTD=YEAR: 2003
EXTT0=
EXTT1=
EXTT2=
EXTT3=
EXTT4=
EXTT5=
EXTT6=
EXTT7=
EXTT8=
EXTT9=
EXTT10=
EXTT11=
EXTT12=
PLAYORDER=
